<?xml version="1.0" encoding="utf-8" standalone="no"?>
<!DOCTYPE svg PUBLIC "-//W3C//DTD SVG 1.1//EN"
  "http://www.w3.org/Graphics/SVG/1.1/DTD/svg11.dtd">
<svg xmlns:xlink="http://www.w3.org/1999/xlink" width="217.803168pt" height="210.024581pt" viewBox="0 0 217.803168 210.024581" xmlns="http://www.w3.org/2000/svg" version="1.1">
 <metadata>
  <rdf:RDF xmlns:dc="http://purl.org/dc/elements/1.1/" xmlns:cc="http://creativecommons.org/ns#" xmlns:rdf="http://www.w3.org/1999/02/22-rdf-syntax-ns#">
   <cc:Work>
    <dc:type rdf:resource="http://purl.org/dc/dcmitype/StillImage"/>
    <dc:date>2026-07-10T20:15:06.516707</dc:date>
    <dc:format>image/svg+xml</dc:format>
    <dc:creator>
     <cc:Agent>
      <dc:title>Matplotlib v3.11.0, https://matplotlib.org/</dc:title>
     </cc:Agent>
    </dc:creator>
   </cc:Work>
  </rdf:RDF>
 </metadata>
 <defs>
  <style type="text/css">*{stroke-linejoin: round; stroke-linecap: butt}</style>
 </defs>
 <g id="figure_1">
  <g id="patch_1">
   <path d="M 0 210.024581 
L 217.803168 210.024581 
L 217.803168 0 
L 0 0 
z
" style="fill: #ffffff"/>
  </g>
  <g id="patch_2">
   <path d="M 7.2 195.696 
L 195.696 195.696 
L 195.696 7.2 
L 7.2 7.2 
z
" style="fill: #ffffff"/>
  </g>
  <g id="pane3d_1">
   <g id="patch_3">
    <path d="M 21.432748 149.218927 
L 83.680283 97.041809 
L 82.814983 21.793077 
L 17.588582 69.392333 
" style="fill: #f2f2f2; opacity: 0.5; stroke: #f2f2f2; stroke-linejoin: miter"/>
   </g>
  </g>
  <g id="pane3d_2">
   <g id="patch_4">
    <path d="M 83.680283 97.041809 
L 183.565367 126.074459 
L 187.129914 48.233871 
L 82.814983 21.793077 
" style="fill: #e6e6e6; opacity: 0.5; stroke: #e6e6e6; stroke-linejoin: miter"/>
   </g>
  </g>
  <g id="pane3d_3">
   <g id="patch_5">
    <path d="M 21.432748 149.218927 
L 127.315816 183.800337 
L 183.565367 126.074459 
L 83.680283 97.041809 
" style="fill: #ececec; opacity: 0.5; stroke: #ececec; stroke-linejoin: miter"/>
   </g>
  </g>
  <g id="grid3d_1">
   <g id="Line3DCollection_1">
    <path d="M 41.841317 155.884366 
L 103.001473 102.657716 
L 102.958721 26.898927 
" style="fill: none; stroke: #b0b0b0; stroke-width: 0.8"/>
    <path d="M 72.661612 165.950274 
L 132.117315 111.120542 
L 133.345167 34.601006 
" style="fill: none; stroke: #b0b0b0; stroke-width: 0.8"/>
    <path d="M 104.458749 176.335219 
L 162.077644 119.828827 
L 164.652018 42.53638 
" style="fill: none; stroke: #b0b0b0; stroke-width: 0.8"/>
   </g>
  </g>
  <g id="grid3d_2">
   <g id="Line3DCollection_2">
    <path d="M 31.937684 58.921012 
L 35.086016 137.774487 
L 139.696073 171.095148 
" style="fill: none; stroke: #b0b0b0; stroke-width: 0.8"/>
    <path d="M 51.652719 44.533878 
L 53.882209 122.019146 
L 156.700512 153.644409 
" style="fill: none; stroke: #b0b0b0; stroke-width: 0.8"/>
    <path d="M 70.359546 30.882487 
L 71.757123 107.036038 
L 172.829491 137.092109 
" style="fill: none; stroke: #b0b0b0; stroke-width: 0.8"/>
   </g>
  </g>
  <g id="grid3d_3">
   <g id="Line3DCollection_3">
    <path d="M 183.63366 124.58312 
L 83.663671 95.597138 
L 21.35922 147.692065 
" style="fill: none; stroke: #b0b0b0; stroke-width: 0.8"/>
    <path d="M 184.184251 112.559608 
L 83.529786 83.954153 
L 20.766245 135.378562 
" style="fill: none; stroke: #b0b0b0; stroke-width: 0.8"/>
    <path d="M 184.742509 100.368686 
L 83.394126 72.156812 
L 20.164699 122.887065 
" style="fill: none; stroke: #b0b0b0; stroke-width: 0.8"/>
    <path d="M 185.308594 88.006833 
L 83.256655 60.202024 
L 19.554394 110.213685 
" style="fill: none; stroke: #b0b0b0; stroke-width: 0.8"/>
    <path d="M 185.882673 75.47043 
L 83.117337 48.086617 
L 18.935137 97.354423 
" style="fill: none; stroke: #b0b0b0; stroke-width: 0.8"/>
    <path d="M 186.464915 62.755751 
L 82.976136 35.807331 
L 18.306731 84.305157 
" style="fill: none; stroke: #b0b0b0; stroke-width: 0.8"/>
    <path d="M 187.055496 49.858968 
L 82.833011 23.360819 
L 17.66897 71.061646 
" style="fill: none; stroke: #b0b0b0; stroke-width: 0.8"/>
   </g>
  </g>
  <g id="axis3d_1">
   <g id="line2d_1">
    <path d="M 21.432748 149.218927 
L 127.315816 183.800337 
" style="fill: none; stroke: #000000; stroke-width: 0.8; stroke-linecap: square"/>
   </g>
   <g id="xtick_1">
    <g id="line2d_2">
     <path d="M 42.374205 155.420602 
L 40.773238 156.813897 
" style="fill: none; stroke: #000000; stroke-width: 0.8; stroke-linecap: square"/>
    </g>
    <g id="text_1">
     <!-- −2 -->
     <g transform="translate(26.949635 179.353872) scale(0.1 -0.1)">
      <defs>
       <path id="DejaVuSans-c9c" d="M 678 2272 
L 4684 2272 
L 4684 1741 
L 678 1741 
L 678 2272 
z
" transform="scale(0.015625)"/>
       <path id="DejaVuSans-15" d="M 1228 531 
L 3431 531 
L 3431 0 
L 469 0 
L 469 531 
Q 828 903 1448 1529 
Q 2069 2156 2228 2338 
Q 2531 2678 2651 2914 
Q 2772 3150 2772 3378 
Q 2772 3750 2511 3984 
Q 2250 4219 1831 4219 
Q 1534 4219 1204 4116 
Q 875 4013 500 3803 
L 500 4441 
Q 881 4594 1212 4672 
Q 1544 4750 1819 4750 
Q 2544 4750 2975 4387 
Q 3406 4025 3406 3419 
Q 3406 3131 3298 2873 
Q 3191 2616 2906 2266 
Q 2828 2175 2409 1742 
Q 1991 1309 1228 531 
z
" transform="scale(0.015625)"/>
      </defs>
      <use xlink:href="#DejaVuSans-c9c"/>
      <use xlink:href="#DejaVuSans-15" transform="translate(83.796875 0)"/>
     </g>
    </g>
   </g>
   <g id="xtick_2">
    <g id="line2d_3">
     <path d="M 73.18031 165.471934 
L 71.62194 166.909054 
" style="fill: none; stroke: #000000; stroke-width: 0.8; stroke-linecap: square"/>
    </g>
    <g id="text_2">
     <!-- 0 -->
     <g transform="translate(62.007532 189.722836) scale(0.1 -0.1)">
      <defs>
       <path id="DejaVuSans-13" d="M 2034 4250 
Q 1547 4250 1301 3770 
Q 1056 3291 1056 2328 
Q 1056 1369 1301 889 
Q 1547 409 2034 409 
Q 2525 409 2770 889 
Q 3016 1369 3016 2328 
Q 3016 3291 2770 3770 
Q 2525 4250 2034 4250 
z
M 2034 4750 
Q 2819 4750 3233 4129 
Q 3647 3509 3647 2328 
Q 3647 1150 3233 529 
Q 2819 -91 2034 -91 
Q 1250 -91 836 529 
Q 422 1150 422 2328 
Q 422 3509 836 4129 
Q 1250 4750 2034 4750 
z
" transform="scale(0.015625)"/>
      </defs>
      <use xlink:href="#DejaVuSans-13"/>
     </g>
    </g>
   </g>
   <g id="xtick_3">
    <g id="line2d_4">
     <path d="M 104.962083 175.841603 
L 103.449836 177.324651 
" style="fill: none; stroke: #000000; stroke-width: 0.8; stroke-linecap: square"/>
    </g>
    <g id="text_3">
     <!-- 2 -->
     <g transform="translate(93.859283 200.422237) scale(0.1 -0.1)">
      <use xlink:href="#DejaVuSans-15"/>
     </g>
    </g>
   </g>
   <g id="text_4">
    <!-- x -->
    <g transform="translate(53.671853 204.044514) scale(0.1 -0.1)">
     <defs>
      <path id="DejaVuSans-5b" d="M 3513 3500 
L 2247 1797 
L 3578 0 
L 2900 0 
L 1881 1375 
L 863 0 
L 184 0 
L 1544 1831 
L 300 3500 
L 978 3500 
L 1906 2253 
L 2834 3500 
L 3513 3500 
z
" transform="scale(0.015625)"/>
     </defs>
     <use xlink:href="#DejaVuSans-5b"/>
    </g>
   </g>
  </g>
  <g id="axis3d_2">
   <g id="line2d_5">
    <path d="M 183.565367 126.074459 
L 127.315816 183.800337 
" style="fill: none; stroke: #000000; stroke-width: 0.8; stroke-linecap: square"/>
   </g>
   <g id="xtick_4">
    <g id="line2d_6">
     <path d="M 138.815102 170.814539 
L 141.460263 171.657082 
" style="fill: none; stroke: #000000; stroke-width: 0.8; stroke-linecap: square"/>
    </g>
    <g id="text_5">
     <!-- −2 -->
     <g transform="translate(145.048015 191.937208) scale(0.1 -0.1)">
      <use xlink:href="#DejaVuSans-c9c"/>
      <use xlink:href="#DejaVuSans-15" transform="translate(83.796875 0)"/>
     </g>
    </g>
   </g>
   <g id="xtick_5">
    <g id="line2d_7">
     <path d="M 155.835775 153.37843 
L 158.432135 154.177029 
" style="fill: none; stroke: #000000; stroke-width: 0.8; stroke-linecap: square"/>
    </g>
    <g id="text_6">
     <!-- 0 -->
     <g transform="translate(165.919669 174.12206) scale(0.1 -0.1)">
      <use xlink:href="#DejaVuSans-13"/>
     </g>
    </g>
   </g>
   <g id="xtick_6">
    <g id="line2d_8">
     <path d="M 171.980505 136.839645 
L 174.529518 137.597649 
" style="fill: none; stroke: #000000; stroke-width: 0.8; stroke-linecap: square"/>
    </g>
    <g id="text_7">
     <!-- 2 -->
     <g transform="translate(181.741949 157.224837) scale(0.1 -0.1)">
      <use xlink:href="#DejaVuSans-15"/>
     </g>
    </g>
   </g>
   <g id="text_8">
    <!-- y -->
    <g transform="translate(180.724278 184.268783) scale(0.1 -0.1)">
     <defs>
      <path id="DejaVuSans-5c" d="M 2059 -325 
Q 1816 -950 1584 -1140 
Q 1353 -1331 966 -1331 
L 506 -1331 
L 506 -850 
L 844 -850 
Q 1081 -850 1212 -737 
Q 1344 -625 1503 -206 
L 1606 56 
L 191 3500 
L 800 3500 
L 1894 763 
L 2988 3500 
L 3597 3500 
L 2059 -325 
z
" transform="scale(0.015625)"/>
     </defs>
     <use xlink:href="#DejaVuSans-5c"/>
    </g>
   </g>
  </g>
  <g id="axis3d_3">
   <g id="line2d_9">
    <path d="M 183.565367 126.074459 
L 187.129914 48.233871 
" style="fill: none; stroke: #000000; stroke-width: 0.8; stroke-linecap: square"/>
   </g>
   <g id="xtick_7">
    <g id="line2d_10">
     <path d="M 182.794603 124.339838 
L 185.313772 125.070263 
" style="fill: none; stroke: #000000; stroke-width: 0.8; stroke-linecap: square"/>
    </g>
    <g id="text_9">
     <!-- −3 -->
     <g transform="translate(194.503992 129.583077) scale(0.1 -0.1)">
      <defs>
       <path id="DejaVuSans-16" d="M 2597 2516 
Q 3050 2419 3304 2112 
Q 3559 1806 3559 1356 
Q 3559 666 3084 287 
Q 2609 -91 1734 -91 
Q 1441 -91 1130 -33 
Q 819 25 488 141 
L 488 750 
Q 750 597 1062 519 
Q 1375 441 1716 441 
Q 2309 441 2620 675 
Q 2931 909 2931 1356 
Q 2931 1769 2642 2001 
Q 2353 2234 1838 2234 
L 1294 2234 
L 1294 2753 
L 1863 2753 
Q 2328 2753 2575 2939 
Q 2822 3125 2822 3475 
Q 2822 3834 2567 4026 
Q 2313 4219 1838 4219 
Q 1578 4219 1281 4162 
Q 984 4106 628 3988 
L 628 4550 
Q 988 4650 1302 4700 
Q 1616 4750 1894 4750 
Q 2613 4750 3031 4423 
Q 3450 4097 3450 3541 
Q 3450 3153 3228 2886 
Q 3006 2619 2597 2516 
z
" transform="scale(0.015625)"/>
      </defs>
      <use xlink:href="#DejaVuSans-c9c"/>
      <use xlink:href="#DejaVuSans-16" transform="translate(83.796875 0)"/>
     </g>
    </g>
   </g>
   <g id="xtick_8">
    <g id="line2d_11">
     <path d="M 183.339176 112.319442 
L 185.876428 113.040515 
" style="fill: none; stroke: #000000; stroke-width: 0.8; stroke-linecap: square"/>
    </g>
    <g id="text_10">
     <!-- −2 -->
     <g transform="translate(195.177815 117.592906) scale(0.1 -0.1)">
      <use xlink:href="#DejaVuSans-c9c"/>
      <use xlink:href="#DejaVuSans-15" transform="translate(83.796875 0)"/>
     </g>
    </g>
   </g>
   <g id="xtick_9">
    <g id="line2d_12">
     <path d="M 183.891328 100.131747 
L 186.446925 100.843136 
" style="fill: none; stroke: #000000; stroke-width: 0.8; stroke-linecap: square"/>
    </g>
    <g id="text_11">
     <!-- −1 -->
     <g transform="translate(195.86098 105.436505) scale(0.1 -0.1)">
      <defs>
       <path id="DejaVuSans-14" d="M 794 531 
L 1825 531 
L 1825 4091 
L 703 3866 
L 703 4441 
L 1819 4666 
L 2450 4666 
L 2450 531 
L 3481 531 
L 3481 0 
L 794 0 
L 794 531 
z
" transform="scale(0.015625)"/>
      </defs>
      <use xlink:href="#DejaVuSans-c9c"/>
      <use xlink:href="#DejaVuSans-14" transform="translate(83.796875 0)"/>
     </g>
    </g>
   </g>
   <g id="xtick_10">
    <g id="line2d_13">
     <path d="M 184.45122 87.773235 
L 187.025427 88.474597 
" style="fill: none; stroke: #000000; stroke-width: 0.8; stroke-linecap: square"/>
    </g>
    <g id="text_12">
     <!-- 0 -->
     <g transform="translate(200.743526 93.110394) scale(0.1 -0.1)">
      <use xlink:href="#DejaVuSans-13"/>
     </g>
    </g>
   </g>
   <g id="xtick_11">
    <g id="line2d_14">
     <path d="M 185.019013 75.240291 
L 187.612105 75.93127 
" style="fill: none; stroke: #000000; stroke-width: 0.8; stroke-linecap: square"/>
    </g>
    <g id="text_13">
     <!-- 1 -->
     <g transform="translate(201.445967 80.610994) scale(0.1 -0.1)">
      <use xlink:href="#DejaVuSans-14"/>
     </g>
    </g>
   </g>
   <g id="xtick_12">
    <g id="line2d_15">
     <path d="M 185.594878 62.529194 
L 188.207132 63.209424 
" style="fill: none; stroke: #000000; stroke-width: 0.8; stroke-linecap: square"/>
    </g>
    <g id="text_14">
     <!-- 2 -->
     <g transform="translate(202.158353 67.934623) scale(0.1 -0.1)">
      <use xlink:href="#DejaVuSans-15"/>
     </g>
    </g>
   </g>
   <g id="xtick_13">
    <g id="line2d_16">
     <path d="M 186.178987 49.636119 
L 188.810689 50.305219 
" style="fill: none; stroke: #000000; stroke-width: 0.8; stroke-linecap: square"/>
    </g>
    <g id="text_15">
     <!-- 3 -->
     <g transform="translate(202.880898 55.077498) scale(0.1 -0.1)">
      <use xlink:href="#DejaVuSans-16"/>
     </g>
    </g>
   </g>
   <g id="text_16">
    <!-- z -->
    <g transform="translate(222.950147 85.209899) scale(0.1 -0.1)">
     <defs>
      <path id="DejaVuSans-5d" d="M 353 3500 
L 3084 3500 
L 3084 2975 
L 922 459 
L 3084 459 
L 3084 0 
L 275 0 
L 275 525 
L 2438 3041 
L 353 3041 
L 353 3500 
z
" transform="scale(0.015625)"/>
     </defs>
     <use xlink:href="#DejaVuSans-5d"/>
    </g>
   </g>
  </g>
  <g id="axes_1">
   <g id="Line3DCollection_4">
    <path d="M 103.678293 86.114963 
L 108.095647 87.881501 
L 112.164996 90.54779 
L 115.545652 93.894366 
L 117.954678 97.642386 
L 119.192753 101.47872 
L 119.161657 105.084401 
L 117.871518 108.163102 
L 115.437496 110.466456 
L 112.067013 111.813781 
L 108.039715 112.104778 
L 103.682788 111.324823 
" clip-path="url(#pc13eccd04c)" style="fill: none; stroke: #1f77b4; stroke-width: 0.4"/>
    <path d="M 103.678293 86.114963 
L 108.675418 87.113304 
L 113.267081 89.066945 
L 117.073089 91.813847 
L 119.78047 95.125337 
L 121.170311 98.726624 
L 121.135332 102.321149 
L 119.686834 105.616139 
L 116.951063 108.346787 
L 113.156161 110.296998 
L 108.61166 111.315249 
L 103.682788 111.324823 
" clip-path="url(#pc13eccd04c)" style="fill: none; stroke: #1f77b4; stroke-width: 0.4"/>
    <path d="M 103.678293 86.114963 
L 108.712406 86.295172 
L 113.325475 87.493826 
L 117.140127 89.608311 
L 119.848653 92.461015 
L 121.237469 95.815729 
L 121.202527 99.398398 
L 119.755039 102.92001 
L 117.017936 106.099595 
L 113.214156 108.685597 
L 108.648235 110.474366 
L 103.682788 111.324823 
" clip-path="url(#pc13eccd04c)" style="fill: none; stroke: #1f77b4; stroke-width: 0.4"/>
    <path d="M 103.678293 86.114963 
L 108.204835 85.515818 
L 112.342056 85.999074 
L 115.755503 87.517052 
L 118.174946 89.938509 
L 119.414205 93.061883 
L 119.383105 96.63328 
L 118.091576 100.367256 
L 115.646574 103.968689 
L 112.242725 107.154375 
L 108.147645 109.67331 
L 103.682788 111.324823 
" clip-path="url(#pc13eccd04c)" style="fill: none; stroke: #1f77b4; stroke-width: 0.4"/>
    <path d="M 103.678293 86.114963 
L 107.20953 84.859072 
L 110.430042 84.74235 
L 113.08214 85.762118 
L 114.959234 87.824509 
L 115.919887 90.755586 
L 115.89593 94.317503 
L 114.895005 98.227806 
L 112.998227 102.180376 
L 110.35363 105.866915 
L 107.165911 108.998253 
L 103.682788 111.324823 
" clip-path="url(#pc13eccd04c)" style="fill: none; stroke: #1f77b4; stroke-width: 0.4"/>
    <path d="M 103.678293 86.114963 
L 105.834998 84.395065 
L 107.798961 83.856023 
L 109.414197 84.526233 
L 110.556333 86.337301 
L 111.140604 89.133958 
L 111.126289 92.689187 
L 110.517996 96.72264 
L 109.364262 100.920923 
L 107.753862 104.95887 
L 105.810052 108.521296 
L 103.682788 111.324823 
" clip-path="url(#pc13eccd04c)" style="fill: none; stroke: #1f77b4; stroke-width: 0.4"/>
    <path d="M 103.678293 86.114963 
L 104.229403 84.173064 
L 104.731027 83.432428 
L 105.143463 83.936105 
L 105.435131 85.627618 
L 105.584539 88.360381 
L 105.581359 91.912413 
L 105.426728 96.004371 
L 105.132893 100.319524 
L 104.722309 104.524884 
L 104.226229 108.293096 
L 103.682788 111.324823 
" clip-path="url(#pc13eccd04c)" style="fill: none; stroke: #1f77b4; stroke-width: 0.4"/>
    <path d="M 103.678293 86.114963 
L 102.564847 84.216559 
L 101.551788 83.515396 
L 100.719342 84.051665 
L 100.131312 85.766566 
L 99.83108 88.511826 
L 99.839414 92.064484 
L 100.153868 96.145 
L 100.749504 100.437292 
L 101.580743 104.609888 
L 102.584237 108.337805 
L 103.682788 111.324823 
" clip-path="url(#pc13eccd04c)" style="fill: none; stroke: #1f77b4; stroke-width: 0.4"/>
    <path d="M 103.678293 86.114963 
L 101.019509 84.520952 
L 98.597729 84.096357 
L 96.605687 84.861205 
L 95.197247 86.740265 
L 94.477365 89.573273 
L 94.496448 93.130315 
L 95.248691 97.130474 
L 96.67382 101.262287 
L 98.661752 105.205097 
L 101.059867 108.650697 
L 103.682788 111.324823 
" clip-path="url(#pc13eccd04c)" style="fill: none; stroke: #1f77b4; stroke-width: 0.4"/>
    <path d="M 103.678293 86.114963 
L 99.759254 85.054007 
L 96.183131 85.115097 
L 93.236943 86.28232 
L 91.151295 88.450877 
L 90.084325 91.438781 
L 90.112305 95.00351 
L 91.226619 98.861725 
L 93.336379 102.710482 
L 96.275958 106.248785 
L 99.816757 109.198625 
L 103.682788 111.324823 
" clip-path="url(#pc13eccd04c)" style="fill: none; stroke: #1f77b4; stroke-width: 0.4"/>
    <path d="M 103.678293 86.114963 
L 98.920336 85.759034 
L 94.568457 86.465149 
L 90.97578 88.168663 
L 88.428403 90.724098 
L 87.123857 93.9193 
L 87.157937 97.494212 
L 88.520051 101.16228 
L 91.096507 104.632669 
L 94.68073 107.631832 
L 98.98931 109.923302 
L 103.682788 111.324823 
" clip-path="url(#pc13eccd04c)" style="fill: none; stroke: #1f77b4; stroke-width: 0.4"/>
    <path d="M 103.678293 86.114963 
L 98.594761 86.560578 
L 93.932658 88.003705 
L 90.074884 90.322648 
L 87.334588 93.323498 
L 85.929633 96.757781 
L 85.966303 100.344293 
L 87.433114 103.792806 
L 90.204442 106.827441 
L 94.05282 109.207896 
L 98.668261 110.747157 
L 103.682788 111.324823 
" clip-path="url(#pc13eccd04c)" style="fill: none; stroke: #1f77b4; stroke-width: 0.4"/>
    <path d="M 103.678293 86.114963 
L 98.819869 87.372202 
L 94.352168 89.565614 
L 90.646512 92.513982 
L 88.009451 95.971967 
L 86.655878 99.652085 
L 86.691247 103.250368 
L 88.104412 106.472845 
L 90.771215 109.060112 
L 94.467628 110.80778 
L 98.890404 111.581339 
L 103.682788 111.324823 
" clip-path="url(#pc13eccd04c)" style="fill: none; stroke: #1f77b4; stroke-width: 0.4"/>
    <path d="M 103.678293 86.114963 
L 99.573424 88.105666 
L 95.789478 90.980594 
L 92.644252 94.503237 
L 90.40232 98.379698 
L 89.250409 102.285271 
L 89.28062 105.894212 
L 90.483398 108.909152 
L 92.750651 111.086756 
L 95.887966 112.257072 
L 99.633764 112.335163 
L 103.682788 111.324823 
" clip-path="url(#pc13eccd04c)" style="fill: none; stroke: #1f77b4; stroke-width: 0.4"/>
    <path d="M 103.678293 86.114963 
L 100.775106 88.680613 
L 98.093822 92.092086 
L 95.861438 96.068545 
L 94.268172 100.276644 
L 93.448971 104.361162 
L 93.470655 107.978471 
L 94.326377 110.828528 
L 95.937883 112.681395 
L 98.164786 113.395458 
L 100.819091 112.926051 
L 103.682788 111.324823 
" clip-path="url(#pc13eccd04c)" style="fill: none; stroke: #1f77b4; stroke-width: 0.4"/>
    <path d="M 103.678293 86.114963 
L 102.294646 89.033641 
L 101.015352 92.775574 
L 99.949241 97.032287 
L 99.187865 101.445601 
L 98.796374 105.640969 
L 98.807086 109.263423 
L 99.216688 112.011269 
L 99.987329 113.663156 
L 101.051226 114.095458 
L 102.317889 113.288859 
L 103.682788 111.324823 
" clip-path="url(#pc13eccd04c)" style="fill: none; stroke: #1f77b4; stroke-width: 0.4"/>
    <path d="M 103.678293 86.114963 
L 103.965954 89.12564 
L 104.232226 92.953818 
L 104.454431 97.283767 
L 104.613451 101.750758 
L 104.695643 105.975138 
L 104.694199 109.598933 
L 104.609742 112.320021 
L 104.450107 113.919333 
L 104.229372 114.278005 
L 103.966355 113.383406 
L 103.682788 111.324823 
" clip-path="url(#pc13eccd04c)" style="fill: none; stroke: #1f77b4; stroke-width: 0.4"/>
    <path d="M 103.678293 86.114963 
L 105.605723 88.946397 
L 107.387715 92.606591 
L 108.872859 96.793932 
L 109.933866 101.156418 
L 110.480178 105.324322 
L 110.466823 108.945504 
L 109.898278 111.718679 
L 108.826961 113.420347 
L 107.346885 113.922395 
L 105.583715 113.199198 
L 103.682788 111.324823 
" clip-path="url(#pc13eccd04c)" style="fill: none; stroke: #1f77b4; stroke-width: 0.4"/>
    <path d="M 103.678293 86.114963 
L 107.034223 88.515803 
L 110.132346 91.773265 
L 112.710972 95.619307 
L 114.551189 99.732015 
L 115.497877 103.765037 
L 115.47425 107.379946 
L 114.488082 110.277466 
L 112.62912 112.223747 
L 110.058587 113.068928 
L 106.992724 112.756673 
L 103.682788 111.324823 
" clip-path="url(#pc13eccd04c)" style="fill: none; stroke: #1f77b4; stroke-width: 0.4"/>
    <path d="M 103.678293 86.114963 
L 108.095647 87.881501 
L 112.164996 90.54779 
L 115.545652 93.894366 
L 117.954678 97.642386 
L 119.192753 101.47872 
L 119.161657 105.084401 
L 117.871518 108.163102 
L 115.437496 110.466456 
L 112.067013 111.813781 
L 108.039715 112.104778 
L 103.682788 111.324823 
" clip-path="url(#pc13eccd04c)" style="fill: none; stroke: #1f77b4; stroke-width: 0.4"/>
    <path d="M 103.678293 86.114963 
L 103.678293 86.114963 
L 103.678293 86.114963 
L 103.678293 86.114963 
L 103.678293 86.114963 
L 103.678293 86.114963 
L 103.678293 86.114963 
L 103.678293 86.114963 
L 103.678293 86.114963 
L 103.678293 86.114963 
L 103.678293 86.114963 
L 103.678293 86.114963 
L 103.678293 86.114963 
L 103.678293 86.114963 
L 103.678293 86.114963 
L 103.678293 86.114963 
L 103.678293 86.114963 
L 103.678293 86.114963 
L 103.678293 86.114963 
L 103.678293 86.114963 
" clip-path="url(#pc13eccd04c)" style="fill: none; stroke: #1f77b4; stroke-width: 0.4"/>
    <path d="M 108.095647 87.881501 
L 108.675418 87.113304 
L 108.712406 86.295172 
L 108.204835 85.515818 
L 107.20953 84.859072 
L 105.834998 84.395065 
L 104.229403 84.173064 
L 102.564847 84.216559 
L 101.019509 84.520952 
L 99.759254 85.054007 
L 98.920336 85.759034 
L 98.594761 86.560578 
L 98.819869 87.372202 
L 99.573424 88.105666 
L 100.775106 88.680613 
L 102.294646 89.033641 
L 103.965954 89.12564 
L 105.605723 88.946397 
L 107.034223 88.515803 
L 108.095647 87.881501 
" clip-path="url(#pc13eccd04c)" style="fill: none; stroke: #1f77b4; stroke-width: 0.4"/>
    <path d="M 112.164996 90.54779 
L 113.267081 89.066945 
L 113.325475 87.493826 
L 112.342056 85.999074 
L 110.430042 84.74235 
L 107.798961 83.856023 
L 104.731027 83.432428 
L 101.551788 83.515396 
L 98.597729 84.096357 
L 96.183131 85.115097 
L 94.568457 86.465149 
L 93.932658 88.003705 
L 94.352168 89.565614 
L 95.789478 90.980594 
L 98.093822 92.092086 
L 101.015352 92.775574 
L 104.232226 92.953818 
L 107.387715 92.606591 
L 110.132346 91.773265 
L 112.164996 90.54779 
" clip-path="url(#pc13eccd04c)" style="fill: none; stroke: #1f77b4; stroke-width: 0.4"/>
    <path d="M 115.545652 93.894366 
L 117.073089 91.813847 
L 117.140127 89.608311 
L 115.755503 87.517052 
L 113.08214 85.762118 
L 109.414197 84.526233 
L 105.143463 83.936105 
L 100.719342 84.051665 
L 96.605687 84.861205 
L 93.236943 86.28232 
L 90.97578 88.168663 
L 90.074884 90.322648 
L 90.646512 92.513982 
L 92.644252 94.503237 
L 95.861438 96.068545 
L 99.949241 97.032287 
L 104.454431 97.283767 
L 108.872859 96.793932 
L 112.710972 95.619307 
L 115.545652 93.894366 
" clip-path="url(#pc13eccd04c)" style="fill: none; stroke: #1f77b4; stroke-width: 0.4"/>
    <path d="M 117.954678 97.642386 
L 119.78047 95.125337 
L 119.848653 92.461015 
L 118.174946 89.938509 
L 114.959234 87.824509 
L 110.556333 86.337301 
L 105.435131 85.627618 
L 100.131312 85.766566 
L 95.197247 86.740265 
L 91.151295 88.450877 
L 88.428403 90.724098 
L 87.334588 93.323498 
L 88.009451 95.971967 
L 90.40232 98.379698 
L 94.268172 100.276644 
L 99.187865 101.445601 
L 104.613451 101.750758 
L 109.933866 101.156418 
L 114.551189 99.732015 
L 117.954678 97.642386 
" clip-path="url(#pc13eccd04c)" style="fill: none; stroke: #1f77b4; stroke-width: 0.4"/>
    <path d="M 119.192753 101.47872 
L 121.170311 98.726624 
L 121.237469 95.815729 
L 119.414205 93.061883 
L 115.919887 90.755586 
L 111.140604 89.133958 
L 105.584539 88.360381 
L 99.83108 88.511826 
L 94.477365 89.573273 
L 90.084325 91.438781 
L 87.123857 93.9193 
L 85.929633 96.757781 
L 86.655878 99.652085 
L 89.250409 102.285271 
L 93.448971 104.361162 
L 98.796374 105.640969 
L 104.695643 105.975138 
L 110.480178 105.324322 
L 115.497877 103.765037 
L 119.192753 101.47872 
" clip-path="url(#pc13eccd04c)" style="fill: none; stroke: #1f77b4; stroke-width: 0.4"/>
    <path d="M 119.161657 105.084401 
L 121.135332 102.321149 
L 121.202527 99.398398 
L 119.383105 96.63328 
L 115.89593 94.317503 
L 111.126289 92.689187 
L 105.581359 91.912413 
L 99.839414 92.064484 
L 94.496448 93.130315 
L 90.112305 95.00351 
L 87.157937 97.494212 
L 85.966303 100.344293 
L 86.691247 103.250368 
L 89.28062 105.894212 
L 93.470655 107.978471 
L 98.807086 109.263423 
L 104.694199 109.598933 
L 110.466823 108.945504 
L 115.47425 107.379946 
L 119.161657 105.084401 
" clip-path="url(#pc13eccd04c)" style="fill: none; stroke: #1f77b4; stroke-width: 0.4"/>
    <path d="M 117.871518 108.163102 
L 119.686834 105.616139 
L 119.755039 102.92001 
L 118.091576 100.367256 
L 114.895005 98.227806 
L 110.517996 96.72264 
L 105.426728 96.004371 
L 100.153868 96.145 
L 95.248691 97.130474 
L 91.226619 98.861725 
L 88.520051 101.16228 
L 87.433114 103.792806 
L 88.104412 106.472845 
L 90.483398 108.909152 
L 94.326377 110.828528 
L 99.216688 112.011269 
L 104.609742 112.320021 
L 109.898278 111.718679 
L 114.488082 110.277466 
L 117.871518 108.163102 
" clip-path="url(#pc13eccd04c)" style="fill: none; stroke: #1f77b4; stroke-width: 0.4"/>
    <path d="M 115.437496 110.466456 
L 116.951063 108.346787 
L 117.017936 106.099595 
L 115.646574 103.968689 
L 112.998227 102.180376 
L 109.364262 100.920923 
L 105.132893 100.319524 
L 100.749504 100.437292 
L 96.67382 101.262287 
L 93.336379 102.710482 
L 91.096507 104.632669 
L 90.204442 106.827441 
L 90.771215 109.060112 
L 92.750651 111.086756 
L 95.937883 112.681395 
L 99.987329 113.663156 
L 104.450107 113.919333 
L 108.826961 113.420347 
L 112.62912 112.223747 
L 115.437496 110.466456 
" clip-path="url(#pc13eccd04c)" style="fill: none; stroke: #1f77b4; stroke-width: 0.4"/>
    <path d="M 112.067013 111.813781 
L 113.156161 110.296998 
L 113.214156 108.685597 
L 112.242725 107.154375 
L 110.35363 105.866915 
L 107.753862 104.95887 
L 104.722309 104.524884 
L 101.580743 104.609888 
L 98.661752 105.205097 
L 96.275958 106.248785 
L 94.68073 107.631832 
L 94.05282 109.207896 
L 94.467628 110.80778 
L 95.887966 112.257072 
L 98.164786 113.395458 
L 101.051226 114.095458 
L 104.229372 114.278005 
L 107.346885 113.922395 
L 110.058587 113.068928 
L 112.067013 111.813781 
" clip-path="url(#pc13eccd04c)" style="fill: none; stroke: #1f77b4; stroke-width: 0.4"/>
    <path d="M 108.039715 112.104778 
L 108.61166 111.315249 
L 108.648235 110.474366 
L 108.147645 109.67331 
L 107.165911 108.998253 
L 105.810052 108.521296 
L 104.226229 108.293096 
L 102.584237 108.337805 
L 101.059867 108.650697 
L 99.816757 109.198625 
L 98.98931 109.923302 
L 98.668261 110.747157 
L 98.890404 111.581339 
L 99.633764 112.335163 
L 100.819091 112.926051 
L 102.317889 113.288859 
L 103.966355 113.383406 
L 105.583715 113.199198 
L 106.992724 112.756673 
L 108.039715 112.104778 
" clip-path="url(#pc13eccd04c)" style="fill: none; stroke: #1f77b4; stroke-width: 0.4"/>
    <path d="M 103.682788 111.324823 
L 103.682788 111.324823 
L 103.682788 111.324823 
L 103.682788 111.324823 
L 103.682788 111.324823 
L 103.682788 111.324823 
L 103.682788 111.324823 
L 103.682788 111.324823 
L 103.682788 111.324823 
L 103.682788 111.324823 
L 103.682788 111.324823 
L 103.682788 111.324823 
L 103.682788 111.324823 
L 103.682788 111.324823 
L 103.682788 111.324823 
L 103.682788 111.324823 
L 103.682788 111.324823 
L 103.682788 111.324823 
L 103.682788 111.324823 
L 103.682788 111.324823 
" clip-path="url(#pc13eccd04c)" style="fill: none; stroke: #1f77b4; stroke-width: 0.4"/>
   </g>
   <g id="Line3DCollection_5">
    <path d="M 103.673667 60.169165 
L 117.170886 65.418098 
L 129.665773 73.505578 
L 140.043118 83.745398 
L 147.377087 95.235829 
L 151.035315 106.957093 
L 150.742718 117.884199 
L 146.59555 127.094958 
L 139.028266 133.855774 
L 128.745601 137.67526 
L 116.636711 138.324495 
L 103.687158 135.829619 
" clip-path="url(#pc13eccd04c)" style="fill: none; stroke: #d62728; stroke-width: 0.4"/>
    <path d="M 103.673667 60.169165 
L 118.900742 63.168364 
L 132.88728 69.126559 
L 144.424133 77.526052 
L 152.534478 87.629353 
L 156.56662 98.558057 
L 156.244195 109.383712 
L 151.671204 119.216602 
L 143.29795 127.281023 
L 131.859403 132.97056 
L 118.298785 135.881907 
L 103.687158 135.829619 
" clip-path="url(#pc13eccd04c)" style="fill: none; stroke: #d62728; stroke-width: 0.4"/>
    <path d="M 103.673667 60.169165 
L 118.969033 60.785852 
L 132.902531 64.524662 
L 144.313165 71.031529 
L 152.290578 79.721696 
L 156.243147 89.845801 
L 155.927426 100.564648 
L 151.443207 111.02238 
L 143.202586 120.41108 
L 131.882286 128.023576 
L 118.366821 133.294281 
L 103.687158 135.829619 
" clip-path="url(#pc13eccd04c)" style="fill: none; stroke: #d62728; stroke-width: 0.4"/>
    <path d="M 103.673667 60.169165 
L 117.389029 58.529068 
L 129.785687 60.198973 
L 139.869277 64.965105 
L 146.882678 72.367712 
L 150.346717 81.761196 
L 150.070513 92.379495 
L 146.139748 103.39831 
L 138.891513 113.990019 
L 128.882307 123.370868 
L 116.852483 130.842377 
L 103.687158 135.829619 
" clip-path="url(#pc13eccd04c)" style="fill: none; stroke: #d62728; stroke-width: 0.4"/>
    <path d="M 103.673667 60.169165 
L 114.348535 56.636943 
L 123.933921 56.596988 
L 131.687041 59.941684 
L 137.056662 66.301664 
L 139.702103 75.105238 
L 139.491794 85.639721 
L 136.490025 97.106874 
L 130.938942 108.670033 
L 123.239933 119.494617 
L 113.935164 128.786037 
L 103.687158 135.829619 
" clip-path="url(#pc13eccd04c)" style="fill: none; stroke: #d62728; stroke-width: 0.4"/>
    <path d="M 103.673667 60.169165 
L 110.182737 55.30538 
L 116.000711 54.075539 
L 120.688237 56.44027 
L 123.925303 62.086078 
L 125.517594 70.486471 
L 125.391861 80.962242 
L 123.58627 92.733269 
L 120.240071 104.960353 
L 115.584711 116.780117 
L 109.93627 127.338568 
L 103.687158 135.829619 
" clip-path="url(#pc13eccd04c)" style="fill: none; stroke: #d62728; stroke-width: 0.4"/>
    <path d="M 103.673667 60.169165 
L 105.335703 54.669839 
L 106.818406 52.875958 
L 108.011216 54.778804 
L 108.834299 60.089326 
L 109.239563 68.300684 
L 109.209045 78.748512 
L 108.752274 90.661272 
L 107.903716 103.199615 
L 106.72079 115.488386 
L 105.282368 126.647607 
L 103.687158 135.829619 
" clip-path="url(#pc13eccd04c)" style="fill: none; stroke: #d62728; stroke-width: 0.4"/>
    <path d="M 103.673667 60.169165 
L 100.315418 54.794278 
L 97.3199 53.110638 
L 94.910973 55.103625 
L 93.250416 60.479515 
L 92.43568 68.727715 
L 92.503 79.18101 
L 93.432674 91.066185 
L 95.154282 103.543867 
L 97.55081 115.741109 
L 100.461865 126.782901 
L 103.687158 135.829619 
" clip-path="url(#pc13eccd04c)" style="fill: none; stroke: #d62728; stroke-width: 0.4"/>
    <path d="M 103.673667 60.169165 
L 95.64586 55.666208 
L 88.462635 54.757713 
L 82.670275 57.386353 
L 78.668616 63.224116 
L 76.701504 71.732805 
L 76.861306 82.224463 
L 79.100324 93.914077 
L 83.243765 105.962835 
L 89.001506 117.514607 
L 95.978653 127.730831 
L 103.687158 135.829619 
" clip-path="url(#pc13eccd04c)" style="fill: none; stroke: #d62728; stroke-width: 0.4"/>
    <path d="M 103.673667 60.169165 
L 91.818433 57.197648 
L 81.153564 57.662048 
L 72.514169 61.424401 
L 66.524695 68.08991 
L 63.573736 77.06619 
L 63.812636 87.625464 
L 67.168931 98.961808 
L 73.366869 110.240557 
L 81.950091 120.640959 
L 92.30509 129.395464 
L 103.687158 135.829619 
" clip-path="url(#pc13eccd04c)" style="fill: none; stroke: #d62728; stroke-width: 0.4"/>
    <path d="M 103.673667 60.169165 
L 89.244784 59.232016 
L 76.172473 61.542891 
L 65.518144 66.845888 
L 58.097399 74.644342 
L 54.430676 84.262196 
L 54.727312 94.911748 
L 58.895645 105.758923 
L 66.570317 115.98116 
L 77.149341 124.81666 
L 89.836406 131.606189 
L 103.687158 135.829619 
" clip-path="url(#pc13eccd04c)" style="fill: none; stroke: #d62728; stroke-width: 0.4"/>
    <path d="M 103.673667 60.169165 
L 88.213635 61.557238 
L 74.093491 66.010638 
L 62.50432 73.124034 
L 54.389138 82.265575 
L 50.365997 92.646371 
L 50.691623 103.399727 
L 55.26333 113.658883 
L 63.65136 122.625023 
L 75.151565 129.6213 
L 88.84919 134.132175 
L 103.687158 135.829619 
" clip-path="url(#pc13eccd04c)" style="fill: none; stroke: #d62728; stroke-width: 0.4"/>
    <path d="M 103.673667 60.169165 
L 88.85559 63.925197 
L 75.210046 70.596045 
L 63.929795 79.608806 
L 55.987269 90.172932 
L 52.036324 101.364631 
L 52.356505 112.224353 
L 56.844792 121.851508 
L 65.04984 129.483244 
L 76.236721 134.549629 
L 89.467807 136.703708 
L 103.687158 135.829619 
" clip-path="url(#pc13eccd04c)" style="fill: none; stroke: #d62728; stroke-width: 0.4"/>
    <path d="M 103.673667 60.169165 
L 91.121168 66.076906 
L 79.475356 74.794154 
L 69.784905 85.582873 
L 62.927157 97.489499 
L 59.505227 109.449099 
L 59.783111 120.406019 
L 63.669812 129.428473 
L 70.751026 135.797484 
L 80.356222 139.059171 
L 91.643712 139.039627 
L 103.687158 135.829619 
" clip-path="url(#pc13eccd04c)" style="fill: none; stroke: #d62728; stroke-width: 0.4"/>
    <path d="M 103.673667 60.169165 
L 94.777604 67.771466 
L 86.475607 78.12164 
L 79.531706 90.34337 
L 74.597957 103.341849 
L 72.130188 115.927877 
L 72.331356 126.961695 
L 75.134767 135.486651 
L 80.228129 140.826398 
L 87.10857 142.631792 
L 95.152833 140.878743 
L 103.687158 135.829619 
" clip-path="url(#pc13eccd04c)" style="fill: none; stroke: #d62728; stroke-width: 0.4"/>
    <path d="M 103.673667 60.169165 
L 99.428454 68.815409 
L 95.452658 80.180976 
L 92.116868 93.300886 
L 89.741185 106.987598 
L 88.551619 119.969357 
L 88.649764 131.050696 
L 90.003044 139.259517 
L 92.456695 143.949487 
L 95.762371 144.84208 
L 99.614692 142.011514 
L 103.687158 135.829619 
" clip-path="url(#pc13eccd04c)" style="fill: none; stroke: #d62728; stroke-width: 0.4"/>
    <path d="M 103.673667 60.169165 
L 104.55647 69.087894 
L 105.384734 80.719683 
L 106.081025 94.075983 
L 106.578172 107.944324 
L 106.828531 121.030633 
L 106.810494 132.124393 
L 106.530647 140.249461 
L 106.021276 144.767828 
L 105.334312 145.42018 
L 104.533572 142.307156 
L 103.687158 135.829619 
" clip-path="url(#pc13eccd04c)" style="fill: none; stroke: #d62728; stroke-width: 0.4"/>
    <path d="M 103.673667 60.169165 
L 109.585301 68.557174 
L 115.118195 79.670897 
L 119.758257 92.567526 
L 123.062609 106.082871 
L 124.719149 118.966032 
L 124.587663 130.035606 
L 122.712848 138.323324 
L 119.307846 143.175156 
L 114.715279 144.294665 
L 109.357435 141.731322 
L 103.687158 135.829619 
" clip-path="url(#pc13eccd04c)" style="fill: none; stroke: #d62728; stroke-width: 0.4"/>
    <path d="M 103.673667 60.169165 
L 113.950897 67.285005 
L 123.526901 77.164479 
L 131.525795 88.971692 
L 137.204171 101.653553 
L 140.044657 114.057752 
L 139.817771 125.069465 
L 136.599454 133.739201 
L 130.743863 139.377619 
L 122.822393 141.604273 
L 113.545965 140.35083 
L 103.687158 135.829619 
" clip-path="url(#pc13eccd04c)" style="fill: none; stroke: #d62728; stroke-width: 0.4"/>
    <path d="M 103.673667 60.169165 
L 117.170886 65.418098 
L 129.665773 73.505578 
L 140.043118 83.745398 
L 147.377087 95.235829 
L 151.035315 106.957093 
L 150.742718 117.884199 
L 146.59555 127.094958 
L 139.028266 133.855774 
L 128.745601 137.67526 
L 116.636711 138.324495 
L 103.687158 135.829619 
" clip-path="url(#pc13eccd04c)" style="fill: none; stroke: #d62728; stroke-width: 0.4"/>
    <path d="M 103.673667 60.169165 
L 103.673667 60.169165 
L 103.673667 60.169165 
L 103.673667 60.169165 
L 103.673667 60.169165 
L 103.673667 60.169165 
L 103.673667 60.169165 
L 103.673667 60.169165 
L 103.673667 60.169165 
L 103.673667 60.169165 
L 103.673667 60.169165 
L 103.673667 60.169165 
L 103.673667 60.169165 
L 103.673667 60.169165 
L 103.673667 60.169165 
L 103.673667 60.169165 
L 103.673667 60.169165 
L 103.673667 60.169165 
L 103.673667 60.169165 
L 103.673667 60.169165 
" clip-path="url(#pc13eccd04c)" style="fill: none; stroke: #d62728; stroke-width: 0.4"/>
    <path d="M 117.170886 65.418098 
L 118.900742 63.168364 
L 118.969033 60.785852 
L 117.389029 58.529068 
L 114.348535 56.636943 
L 110.182737 55.30538 
L 105.335703 54.669839 
L 100.315418 54.794278 
L 95.64586 55.666208 
L 91.818433 57.197648 
L 89.244784 59.232016 
L 88.213635 61.557238 
L 88.85559 63.925197 
L 91.121168 66.076906 
L 94.777604 67.771466 
L 99.428454 68.815409 
L 104.55647 69.087894 
L 109.585301 68.557174 
L 113.950897 67.285005 
L 117.170886 65.418098 
" clip-path="url(#pc13eccd04c)" style="fill: none; stroke: #d62728; stroke-width: 0.4"/>
    <path d="M 129.665773 73.505578 
L 132.88728 69.126559 
L 132.902531 64.524662 
L 129.785687 60.198973 
L 123.933921 56.596988 
L 116.000711 54.075539 
L 106.818406 52.875958 
L 97.3199 53.110638 
L 88.462635 54.757713 
L 81.153564 57.662048 
L 76.172473 61.542891 
L 74.093491 66.010638 
L 75.210046 70.596045 
L 79.475356 74.794154 
L 86.475607 78.12164 
L 95.452658 80.180976 
L 105.384734 80.719683 
L 115.118195 79.670897 
L 123.526901 77.164479 
L 129.665773 73.505578 
" clip-path="url(#pc13eccd04c)" style="fill: none; stroke: #d62728; stroke-width: 0.4"/>
    <path d="M 140.043118 83.745398 
L 144.424133 77.526052 
L 144.313165 71.031529 
L 139.869277 64.965105 
L 131.687041 59.941684 
L 120.688237 56.44027 
L 108.011216 54.778804 
L 94.910973 55.103625 
L 82.670275 57.386353 
L 72.514169 61.424401 
L 65.518144 66.845888 
L 62.50432 73.124034 
L 63.929795 79.608806 
L 69.784905 85.582873 
L 79.531706 90.34337 
L 92.116868 93.300886 
L 106.081025 94.075983 
L 119.758257 92.567526 
L 131.525795 88.971692 
L 140.043118 83.745398 
" clip-path="url(#pc13eccd04c)" style="fill: none; stroke: #d62728; stroke-width: 0.4"/>
    <path d="M 147.377087 95.235829 
L 152.534478 87.629353 
L 152.290578 79.721696 
L 146.882678 72.367712 
L 137.056662 66.301664 
L 123.925303 62.086078 
L 108.834299 60.089326 
L 93.250416 60.479515 
L 78.668616 63.224116 
L 66.524695 68.08991 
L 58.097399 74.644342 
L 54.389138 82.265575 
L 55.987269 90.172932 
L 62.927157 97.489499 
L 74.597957 103.341849 
L 89.741185 106.987598 
L 106.578172 107.944324 
L 123.062609 106.082871 
L 137.204171 101.653553 
L 147.377087 95.235829 
" clip-path="url(#pc13eccd04c)" style="fill: none; stroke: #d62728; stroke-width: 0.4"/>
    <path d="M 151.035315 106.957093 
L 156.56662 98.558057 
L 156.243147 89.845801 
L 150.346717 81.761196 
L 139.702103 75.105238 
L 125.517594 70.486471 
L 109.239563 68.300684 
L 92.43568 68.727715 
L 76.701504 71.732805 
L 63.573736 77.06619 
L 54.430676 84.262196 
L 50.365997 92.646371 
L 52.036324 101.364631 
L 59.505227 109.449099 
L 72.130188 115.927877 
L 88.551619 119.969357 
L 106.828531 121.030633 
L 124.719149 118.966032 
L 140.044657 114.057752 
L 151.035315 106.957093 
" clip-path="url(#pc13eccd04c)" style="fill: none; stroke: #d62728; stroke-width: 0.4"/>
    <path d="M 150.742718 117.884199 
L 156.244195 109.383712 
L 155.927426 100.564648 
L 150.070513 92.379495 
L 139.491794 85.639721 
L 125.391861 80.962242 
L 109.209045 78.748512 
L 92.503 79.18101 
L 76.861306 82.224463 
L 63.812636 87.625464 
L 54.727312 94.911748 
L 50.691623 103.399727 
L 52.356505 112.224353 
L 59.783111 120.406019 
L 72.331356 126.961695 
L 88.649764 131.050696 
L 106.810494 132.124393 
L 124.587663 130.035606 
L 139.817771 125.069465 
L 150.742718 117.884199 
" clip-path="url(#pc13eccd04c)" style="fill: none; stroke: #d62728; stroke-width: 0.4"/>
    <path d="M 146.59555 127.094958 
L 151.671204 119.216602 
L 151.443207 111.02238 
L 146.139748 103.39831 
L 136.490025 97.106874 
L 123.58627 92.733269 
L 108.752274 90.661272 
L 93.432674 91.066185 
L 79.100324 93.914077 
L 67.168931 98.961808 
L 58.895645 105.758923 
L 55.26333 113.658883 
L 56.844792 121.851508 
L 63.669812 129.428473 
L 75.134767 135.486651 
L 90.003044 139.259517 
L 106.530647 140.249461 
L 122.712848 138.323324 
L 136.599454 133.739201 
L 146.59555 127.094958 
" clip-path="url(#pc13eccd04c)" style="fill: none; stroke: #d62728; stroke-width: 0.4"/>
    <path d="M 139.028266 133.855774 
L 143.29795 127.281023 
L 143.202586 120.41108 
L 138.891513 113.990019 
L 130.938942 108.670033 
L 120.240071 104.960353 
L 107.903716 103.199615 
L 95.154282 103.543867 
L 83.243765 105.962835 
L 73.366869 110.240557 
L 66.570317 115.98116 
L 63.65136 122.625023 
L 65.04984 129.483244 
L 70.751026 135.797484 
L 80.228129 140.826398 
L 92.456695 143.949487 
L 106.021276 144.767828 
L 119.307846 143.175156 
L 130.743863 139.377619 
L 139.028266 133.855774 
" clip-path="url(#pc13eccd04c)" style="fill: none; stroke: #d62728; stroke-width: 0.4"/>
    <path d="M 128.745601 137.67526 
L 131.859403 132.97056 
L 131.882286 128.023576 
L 128.882307 123.370868 
L 123.239933 119.494617 
L 115.584711 116.780117 
L 106.72079 115.488386 
L 97.55081 115.741109 
L 89.001506 117.514607 
L 81.950091 120.640959 
L 77.149341 124.81666 
L 75.151565 129.6213 
L 76.236721 134.549629 
L 80.356222 139.059171 
L 87.10857 142.631792 
L 95.762371 144.84208 
L 105.334312 145.42018 
L 114.715279 144.294665 
L 122.822393 141.604273 
L 128.745601 137.67526 
" clip-path="url(#pc13eccd04c)" style="fill: none; stroke: #d62728; stroke-width: 0.4"/>
    <path d="M 116.636711 138.324495 
L 118.298785 135.881907 
L 118.366821 133.294281 
L 116.852483 130.842377 
L 113.935164 128.786037 
L 109.93627 127.338568 
L 105.282368 126.647607 
L 100.461865 126.782901 
L 95.978653 127.730831 
L 92.30509 129.395464 
L 89.836406 131.606189 
L 88.84919 134.132175 
L 89.467807 136.703708 
L 91.643712 139.039627 
L 95.152833 140.878743 
L 99.614692 142.011514 
L 104.533572 142.307156 
L 109.357435 141.731322 
L 113.545965 140.35083 
L 116.636711 138.324495 
" clip-path="url(#pc13eccd04c)" style="fill: none; stroke: #d62728; stroke-width: 0.4"/>
    <path d="M 103.687158 135.829619 
L 103.687158 135.829619 
L 103.687158 135.829619 
L 103.687158 135.829619 
L 103.687158 135.829619 
L 103.687158 135.829619 
L 103.687158 135.829619 
L 103.687158 135.829619 
L 103.687158 135.829619 
L 103.687158 135.829619 
L 103.687158 135.829619 
L 103.687158 135.829619 
L 103.687158 135.829619 
L 103.687158 135.829619 
L 103.687158 135.829619 
L 103.687158 135.829619 
L 103.687158 135.829619 
L 103.687158 135.829619 
L 103.687158 135.829619 
L 103.687158 135.829619 
" clip-path="url(#pc13eccd04c)" style="fill: none; stroke: #d62728; stroke-width: 0.4"/>
   </g>
  </g>
 </g>
 <defs>
  <clipPath id="pc13eccd04c">
   <rect x="7.2" y="7.2" width="188.496" height="188.496"/>
  </clipPath>
 </defs>
</svg>
