<?xml version="1.0" encoding="utf-8" standalone="no"?>
<!DOCTYPE svg PUBLIC "-//W3C//DTD SVG 1.1//EN"
  "http://www.w3.org/Graphics/SVG/1.1/DTD/svg11.dtd">
<svg xmlns:xlink="http://www.w3.org/1999/xlink" width="241.819437pt" height="237.694828pt" viewBox="0 0 241.819437 237.694828" xmlns="http://www.w3.org/2000/svg" version="1.1">
 <metadata>
  <rdf:RDF xmlns:dc="http://purl.org/dc/elements/1.1/" xmlns:cc="http://creativecommons.org/ns#" xmlns:rdf="http://www.w3.org/1999/02/22-rdf-syntax-ns#">
   <cc:Work>
    <dc:type rdf:resource="http://purl.org/dc/dcmitype/StillImage"/>
    <dc:date>2026-07-10T20:15:06.441326</dc:date>
    <dc:format>image/svg+xml</dc:format>
    <dc:creator>
     <cc:Agent>
      <dc:title>Matplotlib v3.11.0, https://matplotlib.org/</dc:title>
     </cc:Agent>
    </dc:creator>
   </cc:Work>
  </rdf:RDF>
 </metadata>
 <defs>
  <style type="text/css">*{stroke-linejoin: round; stroke-linecap: butt}</style>
 </defs>
 <g id="figure_1">
  <g id="patch_1">
   <path d="M -0 237.694828 
L 241.819437 237.694828 
L 241.819437 -0 
L -0 -0 
z
" style="fill: #ffffff"/>
  </g>
  <g id="axes_1">
   <g id="patch_2">
    <path d="M 42.942188 199.494828 
L 231.438187 199.494828 
L 231.438187 10.998828 
L 42.942188 10.998828 
z
" style="fill: #ffffff"/>
   </g>
   <g id="matplotlib.axis_1">
    <g id="xtick_1">
     <g id="line2d_1">
      <path d="M 42.942187 199.494828 
L 42.942187 10.998828 
" clip-path="url(#p3d36f5d9f6)" style="fill: none; stroke: #cccccc; stroke-width: 0.5; stroke-linecap: square"/>
     </g>
     <g id="line2d_2">
      <defs>
       <path id="ma29a4add8b" d="M 0 0 
L 0 3.5 
" style="stroke: #000000; stroke-width: 0.8"/>
      </defs>
      <g>
       <use xlink:href="#ma29a4add8b" x="42.942187" y="199.494828" style="stroke: #000000; stroke-width: 0.8"/>
      </g>
     </g>
     <g id="text_1">
      <!-- −5 -->
      <g transform="translate(35.571094 214.092484) scale(0.1 -0.1)">
       <defs>
        <path id="DejaVuSans-c9c" d="M 678 2272 
L 4684 2272 
L 4684 1741 
L 678 1741 
L 678 2272 
z
" transform="scale(0.015625)"/>
        <path id="DejaVuSans-18" d="M 691 4666 
L 3169 4666 
L 3169 4134 
L 1269 4134 
L 1269 2991 
Q 1406 3038 1543 3061 
Q 1681 3084 1819 3084 
Q 2600 3084 3056 2656 
Q 3513 2228 3513 1497 
Q 3513 744 3044 326 
Q 2575 -91 1722 -91 
Q 1428 -91 1123 -41 
Q 819 9 494 109 
L 494 744 
Q 775 591 1075 516 
Q 1375 441 1709 441 
Q 2250 441 2565 725 
Q 2881 1009 2881 1497 
Q 2881 1984 2565 2268 
Q 2250 2553 1709 2553 
Q 1456 2553 1204 2497 
Q 953 2441 691 2322 
L 691 4666 
z
" transform="scale(0.015625)"/>
       </defs>
       <use xlink:href="#DejaVuSans-c9c"/>
       <use xlink:href="#DejaVuSans-18" transform="translate(83.796875 0)"/>
      </g>
     </g>
    </g>
    <g id="xtick_2">
     <g id="line2d_3">
      <path d="M 61.791787 199.494828 
L 61.791787 10.998828 
" clip-path="url(#p3d36f5d9f6)" style="fill: none; stroke: #cccccc; stroke-width: 0.5; stroke-linecap: square"/>
     </g>
     <g id="line2d_4">
      <g>
       <use xlink:href="#ma29a4add8b" x="61.791787" y="199.494828" style="stroke: #000000; stroke-width: 0.8"/>
      </g>
     </g>
     <g id="text_2">
      <!-- −4 -->
      <g transform="translate(54.420694 214.092484) scale(0.1 -0.1)">
       <defs>
        <path id="DejaVuSans-17" d="M 2419 4116 
L 825 1625 
L 2419 1625 
L 2419 4116 
z
M 2253 4666 
L 3047 4666 
L 3047 1625 
L 3713 1625 
L 3713 1100 
L 3047 1100 
L 3047 0 
L 2419 0 
L 2419 1100 
L 313 1100 
L 313 1709 
L 2253 4666 
z
" transform="scale(0.015625)"/>
       </defs>
       <use xlink:href="#DejaVuSans-c9c"/>
       <use xlink:href="#DejaVuSans-17" transform="translate(83.796875 0)"/>
      </g>
     </g>
    </g>
    <g id="xtick_3">
     <g id="line2d_5">
      <path d="M 80.641387 199.494828 
L 80.641387 10.998828 
" clip-path="url(#p3d36f5d9f6)" style="fill: none; stroke: #cccccc; stroke-width: 0.5; stroke-linecap: square"/>
     </g>
     <g id="line2d_6">
      <g>
       <use xlink:href="#ma29a4add8b" x="80.641387" y="199.494828" style="stroke: #000000; stroke-width: 0.8"/>
      </g>
     </g>
     <g id="text_3">
      <!-- −3 -->
      <g transform="translate(73.270294 214.092484) scale(0.1 -0.1)">
       <defs>
        <path id="DejaVuSans-16" d="M 2597 2516 
Q 3050 2419 3304 2112 
Q 3559 1806 3559 1356 
Q 3559 666 3084 287 
Q 2609 -91 1734 -91 
Q 1441 -91 1130 -33 
Q 819 25 488 141 
L 488 750 
Q 750 597 1062 519 
Q 1375 441 1716 441 
Q 2309 441 2620 675 
Q 2931 909 2931 1356 
Q 2931 1769 2642 2001 
Q 2353 2234 1838 2234 
L 1294 2234 
L 1294 2753 
L 1863 2753 
Q 2328 2753 2575 2939 
Q 2822 3125 2822 3475 
Q 2822 3834 2567 4026 
Q 2313 4219 1838 4219 
Q 1578 4219 1281 4162 
Q 984 4106 628 3988 
L 628 4550 
Q 988 4650 1302 4700 
Q 1616 4750 1894 4750 
Q 2613 4750 3031 4423 
Q 3450 4097 3450 3541 
Q 3450 3153 3228 2886 
Q 3006 2619 2597 2516 
z
" transform="scale(0.015625)"/>
       </defs>
       <use xlink:href="#DejaVuSans-c9c"/>
       <use xlink:href="#DejaVuSans-16" transform="translate(83.796875 0)"/>
      </g>
     </g>
    </g>
    <g id="xtick_4">
     <g id="line2d_7">
      <path d="M 99.490987 199.494828 
L 99.490987 10.998828 
" clip-path="url(#p3d36f5d9f6)" style="fill: none; stroke: #cccccc; stroke-width: 0.5; stroke-linecap: square"/>
     </g>
     <g id="line2d_8">
      <g>
       <use xlink:href="#ma29a4add8b" x="99.490987" y="199.494828" style="stroke: #000000; stroke-width: 0.8"/>
      </g>
     </g>
     <g id="text_4">
      <!-- −2 -->
      <g transform="translate(92.119894 214.092484) scale(0.1 -0.1)">
       <defs>
        <path id="DejaVuSans-15" d="M 1228 531 
L 3431 531 
L 3431 0 
L 469 0 
L 469 531 
Q 828 903 1448 1529 
Q 2069 2156 2228 2338 
Q 2531 2678 2651 2914 
Q 2772 3150 2772 3378 
Q 2772 3750 2511 3984 
Q 2250 4219 1831 4219 
Q 1534 4219 1204 4116 
Q 875 4013 500 3803 
L 500 4441 
Q 881 4594 1212 4672 
Q 1544 4750 1819 4750 
Q 2544 4750 2975 4387 
Q 3406 4025 3406 3419 
Q 3406 3131 3298 2873 
Q 3191 2616 2906 2266 
Q 2828 2175 2409 1742 
Q 1991 1309 1228 531 
z
" transform="scale(0.015625)"/>
       </defs>
       <use xlink:href="#DejaVuSans-c9c"/>
       <use xlink:href="#DejaVuSans-15" transform="translate(83.796875 0)"/>
      </g>
     </g>
    </g>
    <g id="xtick_5">
     <g id="line2d_9">
      <path d="M 118.340587 199.494828 
L 118.340587 10.998828 
" clip-path="url(#p3d36f5d9f6)" style="fill: none; stroke: #cccccc; stroke-width: 0.5; stroke-linecap: square"/>
     </g>
     <g id="line2d_10">
      <g>
       <use xlink:href="#ma29a4add8b" x="118.340587" y="199.494828" style="stroke: #000000; stroke-width: 0.8"/>
      </g>
     </g>
     <g id="text_5">
      <!-- −1 -->
      <g transform="translate(110.969494 214.092484) scale(0.1 -0.1)">
       <defs>
        <path id="DejaVuSans-14" d="M 794 531 
L 1825 531 
L 1825 4091 
L 703 3866 
L 703 4441 
L 1819 4666 
L 2450 4666 
L 2450 531 
L 3481 531 
L 3481 0 
L 794 0 
L 794 531 
z
" transform="scale(0.015625)"/>
       </defs>
       <use xlink:href="#DejaVuSans-c9c"/>
       <use xlink:href="#DejaVuSans-14" transform="translate(83.796875 0)"/>
      </g>
     </g>
    </g>
    <g id="xtick_6">
     <g id="line2d_11">
      <path d="M 137.190187 199.494828 
L 137.190187 10.998828 
" clip-path="url(#p3d36f5d9f6)" style="fill: none; stroke: #cccccc; stroke-width: 0.5; stroke-linecap: square"/>
     </g>
     <g id="line2d_12">
      <g>
       <use xlink:href="#ma29a4add8b" x="137.190187" y="199.494828" style="stroke: #000000; stroke-width: 0.8"/>
      </g>
     </g>
     <g id="text_6">
      <!-- 0 -->
      <g transform="translate(134.008937 214.092484) scale(0.1 -0.1)">
       <defs>
        <path id="DejaVuSans-13" d="M 2034 4250 
Q 1547 4250 1301 3770 
Q 1056 3291 1056 2328 
Q 1056 1369 1301 889 
Q 1547 409 2034 409 
Q 2525 409 2770 889 
Q 3016 1369 3016 2328 
Q 3016 3291 2770 3770 
Q 2525 4250 2034 4250 
z
M 2034 4750 
Q 2819 4750 3233 4129 
Q 3647 3509 3647 2328 
Q 3647 1150 3233 529 
Q 2819 -91 2034 -91 
Q 1250 -91 836 529 
Q 422 1150 422 2328 
Q 422 3509 836 4129 
Q 1250 4750 2034 4750 
z
" transform="scale(0.015625)"/>
       </defs>
       <use xlink:href="#DejaVuSans-13"/>
      </g>
     </g>
    </g>
    <g id="xtick_7">
     <g id="line2d_13">
      <path d="M 156.039787 199.494828 
L 156.039787 10.998828 
" clip-path="url(#p3d36f5d9f6)" style="fill: none; stroke: #cccccc; stroke-width: 0.5; stroke-linecap: square"/>
     </g>
     <g id="line2d_14">
      <g>
       <use xlink:href="#ma29a4add8b" x="156.039787" y="199.494828" style="stroke: #000000; stroke-width: 0.8"/>
      </g>
     </g>
     <g id="text_7">
      <!-- 1 -->
      <g transform="translate(152.858537 214.092484) scale(0.1 -0.1)">
       <use xlink:href="#DejaVuSans-14"/>
      </g>
     </g>
    </g>
    <g id="xtick_8">
     <g id="line2d_15">
      <path d="M 174.889387 199.494828 
L 174.889387 10.998828 
" clip-path="url(#p3d36f5d9f6)" style="fill: none; stroke: #cccccc; stroke-width: 0.5; stroke-linecap: square"/>
     </g>
     <g id="line2d_16">
      <g>
       <use xlink:href="#ma29a4add8b" x="174.889387" y="199.494828" style="stroke: #000000; stroke-width: 0.8"/>
      </g>
     </g>
     <g id="text_8">
      <!-- 2 -->
      <g transform="translate(171.708137 214.092484) scale(0.1 -0.1)">
       <use xlink:href="#DejaVuSans-15"/>
      </g>
     </g>
    </g>
    <g id="xtick_9">
     <g id="line2d_17">
      <path d="M 193.738987 199.494828 
L 193.738987 10.998828 
" clip-path="url(#p3d36f5d9f6)" style="fill: none; stroke: #cccccc; stroke-width: 0.5; stroke-linecap: square"/>
     </g>
     <g id="line2d_18">
      <g>
       <use xlink:href="#ma29a4add8b" x="193.738987" y="199.494828" style="stroke: #000000; stroke-width: 0.8"/>
      </g>
     </g>
     <g id="text_9">
      <!-- 3 -->
      <g transform="translate(190.557737 214.092484) scale(0.1 -0.1)">
       <use xlink:href="#DejaVuSans-16"/>
      </g>
     </g>
    </g>
    <g id="xtick_10">
     <g id="line2d_19">
      <path d="M 212.588587 199.494828 
L 212.588587 10.998828 
" clip-path="url(#p3d36f5d9f6)" style="fill: none; stroke: #cccccc; stroke-width: 0.5; stroke-linecap: square"/>
     </g>
     <g id="line2d_20">
      <g>
       <use xlink:href="#ma29a4add8b" x="212.588587" y="199.494828" style="stroke: #000000; stroke-width: 0.8"/>
      </g>
     </g>
     <g id="text_10">
      <!-- 4 -->
      <g transform="translate(209.407337 214.092484) scale(0.1 -0.1)">
       <use xlink:href="#DejaVuSans-17"/>
      </g>
     </g>
    </g>
    <g id="xtick_11">
     <g id="line2d_21">
      <path d="M 231.438187 199.494828 
L 231.438187 10.998828 
" clip-path="url(#p3d36f5d9f6)" style="fill: none; stroke: #cccccc; stroke-width: 0.5; stroke-linecap: square"/>
     </g>
     <g id="line2d_22">
      <g>
       <use xlink:href="#ma29a4add8b" x="231.438187" y="199.494828" style="stroke: #000000; stroke-width: 0.8"/>
      </g>
     </g>
     <g id="text_11">
      <!-- 5 -->
      <g transform="translate(228.256937 214.092484) scale(0.1 -0.1)">
       <use xlink:href="#DejaVuSans-18"/>
      </g>
     </g>
    </g>
    <g id="text_12">
     <!-- x -->
     <g transform="translate(134.230812 228.092484) scale(0.1 -0.1)">
      <defs>
       <path id="DejaVuSans-5b" d="M 3513 3500 
L 2247 1797 
L 3578 0 
L 2900 0 
L 1881 1375 
L 863 0 
L 184 0 
L 1544 1831 
L 300 3500 
L 978 3500 
L 1906 2253 
L 2834 3500 
L 3513 3500 
z
" transform="scale(0.015625)"/>
      </defs>
      <use xlink:href="#DejaVuSans-5b"/>
     </g>
    </g>
   </g>
   <g id="matplotlib.axis_2">
    <g id="ytick_1">
     <g id="line2d_23">
      <path d="M 42.942188 199.494828 
L 231.438187 199.494828 
" clip-path="url(#p3d36f5d9f6)" style="fill: none; stroke: #cccccc; stroke-width: 0.5; stroke-linecap: square"/>
     </g>
     <g id="line2d_24">
      <defs>
       <path id="m16364f56a7" d="M 0 0 
L -3.5 0 
" style="stroke: #000000; stroke-width: 0.8"/>
      </defs>
      <g>
       <use xlink:href="#m16364f56a7" x="42.942188" y="199.494828" style="stroke: #000000; stroke-width: 0.8"/>
      </g>
     </g>
     <g id="text_13">
      <!-- −5 -->
      <g transform="translate(21.2 203.293656) scale(0.1 -0.1)">
       <use xlink:href="#DejaVuSans-c9c"/>
       <use xlink:href="#DejaVuSans-18" transform="translate(83.796875 0)"/>
      </g>
     </g>
    </g>
    <g id="ytick_2">
     <g id="line2d_25">
      <path d="M 42.942188 180.645228 
L 231.438187 180.645228 
" clip-path="url(#p3d36f5d9f6)" style="fill: none; stroke: #cccccc; stroke-width: 0.5; stroke-linecap: square"/>
     </g>
     <g id="line2d_26">
      <g>
       <use xlink:href="#m16364f56a7" x="42.942188" y="180.645228" style="stroke: #000000; stroke-width: 0.8"/>
      </g>
     </g>
     <g id="text_14">
      <!-- −4 -->
      <g transform="translate(21.2 184.444056) scale(0.1 -0.1)">
       <use xlink:href="#DejaVuSans-c9c"/>
       <use xlink:href="#DejaVuSans-17" transform="translate(83.796875 0)"/>
      </g>
     </g>
    </g>
    <g id="ytick_3">
     <g id="line2d_27">
      <path d="M 42.942188 161.795628 
L 231.438187 161.795628 
" clip-path="url(#p3d36f5d9f6)" style="fill: none; stroke: #cccccc; stroke-width: 0.5; stroke-linecap: square"/>
     </g>
     <g id="line2d_28">
      <g>
       <use xlink:href="#m16364f56a7" x="42.942188" y="161.795628" style="stroke: #000000; stroke-width: 0.8"/>
      </g>
     </g>
     <g id="text_15">
      <!-- −3 -->
      <g transform="translate(21.2 165.594456) scale(0.1 -0.1)">
       <use xlink:href="#DejaVuSans-c9c"/>
       <use xlink:href="#DejaVuSans-16" transform="translate(83.796875 0)"/>
      </g>
     </g>
    </g>
    <g id="ytick_4">
     <g id="line2d_29">
      <path d="M 42.942188 142.946028 
L 231.438187 142.946028 
" clip-path="url(#p3d36f5d9f6)" style="fill: none; stroke: #cccccc; stroke-width: 0.5; stroke-linecap: square"/>
     </g>
     <g id="line2d_30">
      <g>
       <use xlink:href="#m16364f56a7" x="42.942188" y="142.946028" style="stroke: #000000; stroke-width: 0.8"/>
      </g>
     </g>
     <g id="text_16">
      <!-- −2 -->
      <g transform="translate(21.2 146.744856) scale(0.1 -0.1)">
       <use xlink:href="#DejaVuSans-c9c"/>
       <use xlink:href="#DejaVuSans-15" transform="translate(83.796875 0)"/>
      </g>
     </g>
    </g>
    <g id="ytick_5">
     <g id="line2d_31">
      <path d="M 42.942188 124.096428 
L 231.438187 124.096428 
" clip-path="url(#p3d36f5d9f6)" style="fill: none; stroke: #cccccc; stroke-width: 0.5; stroke-linecap: square"/>
     </g>
     <g id="line2d_32">
      <g>
       <use xlink:href="#m16364f56a7" x="42.942188" y="124.096428" style="stroke: #000000; stroke-width: 0.8"/>
      </g>
     </g>
     <g id="text_17">
      <!-- −1 -->
      <g transform="translate(21.2 127.895256) scale(0.1 -0.1)">
       <use xlink:href="#DejaVuSans-c9c"/>
       <use xlink:href="#DejaVuSans-14" transform="translate(83.796875 0)"/>
      </g>
     </g>
    </g>
    <g id="ytick_6">
     <g id="line2d_33">
      <path d="M 42.942188 105.246828 
L 231.438187 105.246828 
" clip-path="url(#p3d36f5d9f6)" style="fill: none; stroke: #cccccc; stroke-width: 0.5; stroke-linecap: square"/>
     </g>
     <g id="line2d_34">
      <g>
       <use xlink:href="#m16364f56a7" x="42.942188" y="105.246828" style="stroke: #000000; stroke-width: 0.8"/>
      </g>
     </g>
     <g id="text_18">
      <!-- 0 -->
      <g transform="translate(29.579688 109.045656) scale(0.1 -0.1)">
       <use xlink:href="#DejaVuSans-13"/>
      </g>
     </g>
    </g>
    <g id="ytick_7">
     <g id="line2d_35">
      <path d="M 42.942188 86.397228 
L 231.438187 86.397228 
" clip-path="url(#p3d36f5d9f6)" style="fill: none; stroke: #cccccc; stroke-width: 0.5; stroke-linecap: square"/>
     </g>
     <g id="line2d_36">
      <g>
       <use xlink:href="#m16364f56a7" x="42.942188" y="86.397228" style="stroke: #000000; stroke-width: 0.8"/>
      </g>
     </g>
     <g id="text_19">
      <!-- 1 -->
      <g transform="translate(29.579688 90.196056) scale(0.1 -0.1)">
       <use xlink:href="#DejaVuSans-14"/>
      </g>
     </g>
    </g>
    <g id="ytick_8">
     <g id="line2d_37">
      <path d="M 42.942188 67.547628 
L 231.438187 67.547628 
" clip-path="url(#p3d36f5d9f6)" style="fill: none; stroke: #cccccc; stroke-width: 0.5; stroke-linecap: square"/>
     </g>
     <g id="line2d_38">
      <g>
       <use xlink:href="#m16364f56a7" x="42.942188" y="67.547628" style="stroke: #000000; stroke-width: 0.8"/>
      </g>
     </g>
     <g id="text_20">
      <!-- 2 -->
      <g transform="translate(29.579688 71.346456) scale(0.1 -0.1)">
       <use xlink:href="#DejaVuSans-15"/>
      </g>
     </g>
    </g>
    <g id="ytick_9">
     <g id="line2d_39">
      <path d="M 42.942188 48.698028 
L 231.438187 48.698028 
" clip-path="url(#p3d36f5d9f6)" style="fill: none; stroke: #cccccc; stroke-width: 0.5; stroke-linecap: square"/>
     </g>
     <g id="line2d_40">
      <g>
       <use xlink:href="#m16364f56a7" x="42.942188" y="48.698028" style="stroke: #000000; stroke-width: 0.8"/>
      </g>
     </g>
     <g id="text_21">
      <!-- 3 -->
      <g transform="translate(29.579688 52.496856) scale(0.1 -0.1)">
       <use xlink:href="#DejaVuSans-16"/>
      </g>
     </g>
    </g>
    <g id="ytick_10">
     <g id="line2d_41">
      <path d="M 42.942188 29.848428 
L 231.438187 29.848428 
" clip-path="url(#p3d36f5d9f6)" style="fill: none; stroke: #cccccc; stroke-width: 0.5; stroke-linecap: square"/>
     </g>
     <g id="line2d_42">
      <g>
       <use xlink:href="#m16364f56a7" x="42.942188" y="29.848428" style="stroke: #000000; stroke-width: 0.8"/>
      </g>
     </g>
     <g id="text_22">
      <!-- 4 -->
      <g transform="translate(29.579688 33.647256) scale(0.1 -0.1)">
       <use xlink:href="#DejaVuSans-17"/>
      </g>
     </g>
    </g>
    <g id="ytick_11">
     <g id="line2d_43">
      <path d="M 42.942188 10.998828 
L 231.438187 10.998828 
" clip-path="url(#p3d36f5d9f6)" style="fill: none; stroke: #cccccc; stroke-width: 0.5; stroke-linecap: square"/>
     </g>
     <g id="line2d_44">
      <g>
       <use xlink:href="#m16364f56a7" x="42.942188" y="10.998828" style="stroke: #000000; stroke-width: 0.8"/>
      </g>
     </g>
     <g id="text_23">
      <!-- 5 -->
      <g transform="translate(29.579688 14.797656) scale(0.1 -0.1)">
       <use xlink:href="#DejaVuSans-18"/>
      </g>
     </g>
    </g>
    <g id="text_24">
     <!-- y -->
     <g transform="translate(14.797656 108.206203) rotate(-90) scale(0.1 -0.1)">
      <defs>
       <path id="DejaVuSans-5c" d="M 2059 -325 
Q 1816 -950 1584 -1140 
Q 1353 -1331 966 -1331 
L 506 -1331 
L 506 -850 
L 844 -850 
Q 1081 -850 1212 -737 
Q 1344 -625 1503 -206 
L 1606 56 
L 191 3500 
L 800 3500 
L 1894 763 
L 2988 3500 
L 3597 3500 
L 2059 -325 
z
" transform="scale(0.015625)"/>
      </defs>
      <use xlink:href="#DejaVuSans-5c"/>
     </g>
    </g>
   </g>
   <g id="line2d_45">
    <path d="M 42.942188 105.246828 
L 231.438187 105.246828 
" clip-path="url(#p3d36f5d9f6)" style="fill: none; stroke: #333333; stroke-linecap: square"/>
   </g>
   <g id="line2d_46">
    <path d="M 137.190187 199.494828 
L 137.190187 10.998828 
" clip-path="url(#p3d36f5d9f6)" style="fill: none; stroke: #333333; stroke-linecap: square"/>
   </g>
   <g id="line2d_47">
    <path d="M 42.942187 18.867109 
L 54.280293 31.403609 
L 63.256293 41.646584 
L 70.342609 50.043847 
L 76.484082 57.665303 
L 81.208293 63.861531 
L 84.987661 69.137632 
L 88.294609 74.109263 
L 91.129135 78.781929 
L 93.49124 83.147771 
L 95.380924 87.169638 
L 96.798187 90.745656 
L 97.74303 93.634396 
L 98.687872 97.423872 
L 99.160293 100.242509 
L 175.220082 100.242509 
L 175.692503 97.423872 
L 176.637345 93.634396 
L 177.582187 90.745656 
L 178.999451 87.169638 
L 180.889135 83.147771 
L 183.25124 78.781929 
L 186.085766 74.109263 
L 189.392714 69.137632 
L 193.172082 63.861531 
L 197.896293 57.665303 
L 203.565345 50.616874 
L 210.17924 42.747451 
L 218.682819 32.998511 
L 229.076082 21.450719 
L 231.438187 18.867109 
L 231.438187 18.867109 
" clip-path="url(#p3d36f5d9f6)" style="fill: none; stroke: #1f77b4; stroke-width: 1.5; stroke-linecap: square"/>
   </g>
   <g id="line2d_48">
    <path d="M 42.942187 191.626547 
L 54.280293 179.090047 
L 63.256293 168.847073 
L 70.342609 160.449809 
L 76.484082 152.828353 
L 81.208293 146.632126 
L 84.987661 141.356025 
L 88.294609 136.384393 
L 91.129135 131.711727 
L 93.49124 127.345885 
L 95.380924 123.324018 
L 96.798187 119.748 
L 97.74303 116.85926 
L 98.687872 113.069784 
L 99.160293 110.251148 
L 175.220082 110.251148 
L 175.692503 113.069784 
L 176.637345 116.85926 
L 177.582187 119.748 
L 178.999451 123.324018 
L 180.889135 127.345885 
L 183.25124 131.711727 
L 186.085766 136.384393 
L 189.392714 141.356025 
L 193.172082 146.632126 
L 197.896293 152.828353 
L 203.565345 159.876782 
L 210.17924 167.746205 
L 218.682819 177.495145 
L 229.076082 189.042938 
L 231.438187 191.626547 
L 231.438187 191.626547 
" clip-path="url(#p3d36f5d9f6)" style="fill: none; stroke: #1f77b4; stroke-width: 1.5; stroke-linecap: square"/>
   </g>
   <g id="line2d_49">
    <path d="M 42.942187 3.738626 
L 56.642398 16.31328 
L 67.980503 26.435598 
L 77.428924 34.588225 
L 85.460082 41.237192 
L 92.546398 46.814837 
L 98.687872 51.361227 
L 103.884503 54.94277 
L 108.608714 57.937946 
L 112.860503 60.378541 
L 116.639872 62.310303 
L 120.41924 63.985534 
L 123.726187 65.215478 
L 127.033135 66.203322 
L 130.340082 66.930335 
L 133.174609 67.334369 
L 136.009135 67.529132 
L 138.843661 67.511385 
L 141.678187 67.281425 
L 144.512714 66.843064 
L 147.34724 66.203322 
L 150.654187 65.215478 
L 153.961135 63.985534 
L 157.268082 62.5344 
L 161.047451 60.632944 
L 165.29924 58.221851 
L 170.023451 55.2543 
L 175.220082 51.697761 
L 180.889135 47.533505 
L 187.50303 42.377028 
L 195.061766 36.179113 
L 203.565345 28.912751 
L 213.958609 19.721276 
L 226.241556 8.544316 
L 231.438187 3.738626 
L 231.438187 3.738626 
" clip-path="url(#p3d36f5d9f6)" style="fill: none; stroke: #d62728; stroke-width: 1.5; stroke-linecap: square"/>
   </g>
   <g id="line2d_50">
    <path d="M 42.942187 206.755031 
L 56.642398 194.180377 
L 67.980503 184.058059 
L 77.428924 175.905432 
L 85.460082 169.256464 
L 92.546398 163.67882 
L 98.687872 159.132429 
L 103.884503 155.550886 
L 108.608714 152.55571 
L 112.860503 150.115116 
L 116.639872 148.183353 
L 120.41924 146.508122 
L 123.726187 145.278178 
L 127.033135 144.290335 
L 130.340082 143.563321 
L 133.174609 143.159287 
L 136.009135 142.964524 
L 138.843661 142.982271 
L 141.678187 143.212231 
L 144.512714 143.650592 
L 147.34724 144.290335 
L 150.654187 145.278178 
L 153.961135 146.508122 
L 157.268082 147.959257 
L 161.047451 149.860713 
L 165.29924 152.271806 
L 170.023451 155.239356 
L 175.220082 158.795895 
L 180.889135 162.960151 
L 187.50303 168.116628 
L 195.061766 174.314544 
L 203.565345 181.580905 
L 213.958609 190.772381 
L 226.241556 201.94934 
L 231.438187 206.755031 
L 231.438187 206.755031 
" clip-path="url(#p3d36f5d9f6)" style="fill: none; stroke: #d62728; stroke-width: 1.5; stroke-linecap: square"/>
   </g>
   <g id="line2d_51">
    <path d="M 42.942187 199.494828 
L 231.438187 10.998828 
L 231.438187 10.998828 
" clip-path="url(#p3d36f5d9f6)" style="fill: none; stroke-dasharray: 4.44,1.92; stroke-dashoffset: 0; stroke: #2ca02c; stroke-width: 1.2"/>
   </g>
   <g id="line2d_52">
    <path d="M 42.942187 10.998828 
L 231.438187 199.494828 
L 231.438187 199.494828 
" clip-path="url(#p3d36f5d9f6)" style="fill: none; stroke-dasharray: 4.44,1.92; stroke-dashoffset: 0; stroke: #2ca02c; stroke-width: 1.2"/>
   </g>
   <g id="line2d_53"/>
   <g id="line2d_54"/>
   <g id="line2d_55"/>
   <g id="patch_3">
    <path d="M 42.942188 199.494828 
L 42.942188 10.998828 
" style="fill: none; stroke: #000000; stroke-width: 0.8; stroke-linejoin: miter; stroke-linecap: square"/>
   </g>
   <g id="patch_4">
    <path d="M 231.438187 199.494828 
L 231.438187 10.998828 
" style="fill: none; stroke: #000000; stroke-width: 0.8; stroke-linejoin: miter; stroke-linecap: square"/>
   </g>
   <g id="patch_5">
    <path d="M 42.942187 199.494828 
L 231.438187 199.494828 
" style="fill: none; stroke: #000000; stroke-width: 0.8; stroke-linejoin: miter; stroke-linecap: square"/>
   </g>
   <g id="patch_6">
    <path d="M 42.942187 10.998828 
L 231.438187 10.998828 
" style="fill: none; stroke: #000000; stroke-width: 0.8; stroke-linejoin: miter; stroke-linecap: square"/>
   </g>
   <g id="legend_1">
    <g id="patch_7">
     <path d="M 193.729125 42.800234 
L 227.238187 42.800234 
Q 228.438187 42.800234 228.438187 41.600234 
L 228.438187 15.198828 
Q 228.438187 13.998828 227.238187 13.998828 
L 193.729125 13.998828 
Q 192.529125 13.998828 192.529125 15.198828 
L 192.529125 41.600234 
Q 192.529125 42.800234 193.729125 42.800234 
z
" style="fill: #ffffff; opacity: 0.8; stroke: #cccccc; stroke-linejoin: miter"/>
    </g>
    <g id="line2d_56">
     <path d="M 194.929125 18.857891 
L 200.929125 18.857891 
L 206.929125 18.857891 
" style="fill: none; stroke: #1f77b4; stroke-width: 1.5; stroke-linecap: square"/>
    </g>
    <g id="text_25">
     <!-- c=4 -->
     <g transform="translate(211.729125 20.957891) scale(0.06 -0.06)">
      <defs>
       <path id="DejaVuSans-46" d="M 3122 3366 
L 3122 2828 
Q 2878 2963 2633 3030 
Q 2388 3097 2138 3097 
Q 1578 3097 1268 2742 
Q 959 2388 959 1747 
Q 959 1106 1268 751 
Q 1578 397 2138 397 
Q 2388 397 2633 464 
Q 2878 531 3122 666 
L 3122 134 
Q 2881 22 2623 -34 
Q 2366 -91 2075 -91 
Q 1284 -91 818 406 
Q 353 903 353 1747 
Q 353 2603 823 3093 
Q 1294 3584 2113 3584 
Q 2378 3584 2631 3529 
Q 2884 3475 3122 3366 
z
" transform="scale(0.015625)"/>
       <path id="DejaVuSans-20" d="M 678 2906 
L 4684 2906 
L 4684 2381 
L 678 2381 
L 678 2906 
z
M 678 1631 
L 4684 1631 
L 4684 1100 
L 678 1100 
L 678 1631 
z
" transform="scale(0.015625)"/>
      </defs>
      <use xlink:href="#DejaVuSans-46"/>
      <use xlink:href="#DejaVuSans-20" transform="translate(54.984375 0)"/>
      <use xlink:href="#DejaVuSans-17" transform="translate(138.78125 0)"/>
     </g>
    </g>
    <g id="line2d_57">
     <path d="M 194.929125 27.858359 
L 200.929125 27.858359 
L 206.929125 27.858359 
" style="fill: none; stroke: #d62728; stroke-width: 1.5; stroke-linecap: square"/>
    </g>
    <g id="text_26">
     <!-- c=-4 -->
     <g transform="translate(211.729125 29.958359) scale(0.06 -0.06)">
      <defs>
       <path id="DejaVuSans-10" d="M 313 2009 
L 1997 2009 
L 1997 1497 
L 313 1497 
L 313 2009 
z
" transform="scale(0.015625)"/>
      </defs>
      <use xlink:href="#DejaVuSans-46"/>
      <use xlink:href="#DejaVuSans-20" transform="translate(54.984375 0)"/>
      <use xlink:href="#DejaVuSans-10" transform="translate(138.78125 0)"/>
      <use xlink:href="#DejaVuSans-17" transform="translate(174.859375 0)"/>
     </g>
    </g>
    <g id="line2d_58">
     <path d="M 194.929125 36.858828 
L 200.929125 36.858828 
L 206.929125 36.858828 
" style="fill: none; stroke-dasharray: 5.55,2.4; stroke-dashoffset: 0; stroke: #2ca02c; stroke-width: 1.5"/>
    </g>
    <g id="text_27">
     <!-- c=0 -->
     <g transform="translate(211.729125 38.958828) scale(0.06 -0.06)">
      <use xlink:href="#DejaVuSans-46"/>
      <use xlink:href="#DejaVuSans-20" transform="translate(54.984375 0)"/>
      <use xlink:href="#DejaVuSans-13" transform="translate(138.78125 0)"/>
     </g>
    </g>
   </g>
  </g>
 </g>
 <defs>
  <clipPath id="p3d36f5d9f6">
   <rect x="42.942188" y="10.998828" width="188.496" height="188.496"/>
  </clipPath>
 </defs>
</svg>
